<mxfile host="app.diagrams.net" modified="2024-03-06T14:00:42.268Z" agent="Mozilla/5.0 (Windows NT 10.0; Win64; x64) AppleWebKit/537.36 (KHTML, like Gecko) Chrome/122.0.0.0 Safari/537.36" etag="AIHPkFgKaMuyD-4FPGd4" version="24.0.2" type="github">
  <diagram name="第 1 页" id="8hRuXnMOgKRUBy0nI1rh">
    <mxGraphModel dx="880" dy="529" grid="0" gridSize="10" guides="1" tooltips="1" connect="1" arrows="1" fold="1" page="0" pageScale="1" pageWidth="1400" pageHeight="850" math="0" shadow="0">
      <root>
        <mxCell id="0" />
        <mxCell id="1" parent="0" />
        <mxCell id="n7e6CtgODmLhwEK5LFKI-1" value="" style="image;html=1;image=img/lib/atlassian/Bamboo_Logo.svg;direction=east;" vertex="1" parent="1">
          <mxGeometry x="443" y="85" width="112" height="107" as="geometry" />
        </mxCell>
        <mxCell id="n7e6CtgODmLhwEK5LFKI-2" value="" style="verticalLabelPosition=bottom;aspect=fixed;html=1;shape=mxgraph.salesforce.marketing;" vertex="1" parent="1">
          <mxGeometry x="198" y="82" width="113" height="113" as="geometry" />
        </mxCell>
      </root>
    </mxGraphModel>
  </diagram>
</mxfile>
